<svg id="Layer_1" data-name="Layer 1" xmlns="http://www.w3.org/2000/svg" viewBox="0 0 260 55.48"><defs><style>.cls-1{fill:#0a2240;}.cls-2{font-size:12.6px;fill:#cc5b53;font-family:NHaasGroteskTXPro-56It, Neue Haas Grotesk Text Pro;font-style:italic;}.cls-3{letter-spacing:-0.02em;}.cls-4{letter-spacing:0.01em;}</style></defs><title>Module_BetaApp_Logo</title><path class="cls-1" d="M76.84,38.34l3.4-21.19H84.3l5.28,12.67,5.27-12.67h4.07l3.39,21.19H97.42L95.74,25.69,90.43,38.34H88.72L83.41,25.69,81.73,38.34Z"/><path class="cls-1" d="M128.21,19.75a11.29,11.29,0,0,1,0,16,11.3,11.3,0,0,1-8.2,3.11,11.69,11.69,0,0,1-8.26-3.11,10.84,10.84,0,0,1-3.3-7.88,11.82,11.82,0,0,1,3.27-8,12.53,12.53,0,0,1,16.49,0ZM115.34,23a6.51,6.51,0,0,0-1.87,4.8,6.31,6.31,0,0,0,1.93,4.76A6.21,6.21,0,0,0,120,34.3a6.25,6.25,0,0,0,6.54-6.54A6.68,6.68,0,0,0,124.65,23,6.78,6.78,0,0,0,120,21.18,6.52,6.52,0,0,0,115.34,23Z"/><path class="cls-1" d="M146.11,17.15c2.79,0,5.75.41,8.35,2.92a10.09,10.09,0,0,1,3,7.59,10.12,10.12,0,0,1-2.89,7.5,11.43,11.43,0,0,1-8.35,3.18H139.4V17.15ZM144.3,34.21h1.3a7.67,7.67,0,0,0,4.83-1.43,6.65,6.65,0,0,0,2.06-5.12,6.27,6.27,0,0,0-1.74-4.57,7,7,0,0,0-5.15-1.81h-1.3Z"/><path class="cls-1" d="M183.07,29.69a9,9,0,0,1-2.35,6.71,10.27,10.27,0,0,1-13.22,0,9,9,0,0,1-2.35-6.71V17.15H170V29.57a5,5,0,0,0,1.11,3.55,4.46,4.46,0,0,0,5.91,0,5,5,0,0,0,1.12-3.55V17.15h4.89Z"/><path class="cls-1" d="M196.84,17.15V34.21h6.58v4.13H192V17.15Z"/><path class="cls-1" d="M222.38,21.28H215.3v4.09H222V29.5H215.3v4.71h7.08v4.13h-12V17.15h12Z"/><path class="cls-1" d="M59.67,13.46,48.21,6.84a1.19,1.19,0,0,0-1.21,0L36.14,13.11,25.28,6.84a1.19,1.19,0,0,0-1.21,0L12.61,13.45A1.21,1.21,0,0,0,12,14.5V41A1.21,1.21,0,0,0,12.61,42l11.46,6.61a1.19,1.19,0,0,0,1.21,0l10.86-6.26L47,48.64a1.16,1.16,0,0,0,.6.17,1.22,1.22,0,0,0,.61-.17L59.67,42A1.21,1.21,0,0,0,60.28,41V14.5A1.19,1.19,0,0,0,59.67,13.46ZM47.6,9.28l9,5.22-9,5.22-9-5.22ZM46.39,33.66l-9,5.22V28.44l9-5.22Zm0,2.8v9L38.56,41ZM24.68,9.28l10.85,6.27,9.65,5.57-9,5.22L15.64,14.5ZM14.42,16.6,34.93,28.44V38.88l-9.65-5.57a1.19,1.19,0,0,0-1.21,0,1.24,1.24,0,0,0-.61,1V45.5l-9-5.22ZM33.72,41,25.89,45.5v-9ZM48.81,45.5V21.82l9-5.22V40.28Z"/><text class="cls-2" transform="translate(228.52 26.54)">b<tspan class="cls-3" x="7.39" y="0">e</tspan><tspan class="cls-4" x="14.36" y="0">t</tspan><tspan x="18.86" y="0">a</tspan></text></svg>