<svg id="Layer_1" data-name="Layer 1" xmlns="http://www.w3.org/2000/svg" viewBox="0 0 260.01 83.13"><defs><style>.cls-1{fill:#0a2240;}.cls-2{fill:#cc5b53;}.cls-3{font-size:12.6px;fill:#fff;font-family:NHaasGroteskTXPro-56It, Neue Haas Grotesk Text Pro;font-style:italic;}.cls-4{letter-spacing:-0.02em;}.cls-5{letter-spacing:0.01em;}</style></defs><title>Module_Logo_New copy 3</title><path class="cls-1" d="M88.71,49.93,92.1,28.74h4.07l5.27,12.68,5.28-12.68h4.06l3.4,21.19h-4.89l-1.68-12.64L102.3,49.93h-1.71L95.28,37.29,93.6,49.93Z"/><path class="cls-1" d="M140.08,31.35a11.27,11.27,0,0,1,0,15.94,11.31,11.31,0,0,1-8.2,3.12,11.65,11.65,0,0,1-8.26-3.12,10.8,10.8,0,0,1-3.3-7.87,11.8,11.8,0,0,1,3.27-8,12.5,12.5,0,0,1,16.49,0Zm-12.87,3.24a6.48,6.48,0,0,0-1.88,4.79,6.34,6.34,0,0,0,1.94,4.77,6.25,6.25,0,0,0,4.55,1.75,6.25,6.25,0,0,0,6.54-6.55,6.68,6.68,0,0,0-1.84-4.76,6.8,6.8,0,0,0-4.67-1.81A6.46,6.46,0,0,0,127.21,34.59Z"/><path class="cls-1" d="M158,28.74c2.79,0,5.75.41,8.35,2.92a10.1,10.1,0,0,1,3,7.6,10.1,10.1,0,0,1-2.89,7.49,11.4,11.4,0,0,1-8.35,3.18h-6.87V28.74ZM156.17,45.8h1.3a7.61,7.61,0,0,0,4.83-1.43,6.62,6.62,0,0,0,2.06-5.11,6.31,6.31,0,0,0-1.74-4.58,7,7,0,0,0-5.15-1.81h-1.3Z"/><path class="cls-1" d="M194.94,41.29a9,9,0,0,1-2.35,6.7,10.24,10.24,0,0,1-13.22,0,9,9,0,0,1-2.35-6.7V28.74h4.89V41.16A5,5,0,0,0,183,44.72a4.49,4.49,0,0,0,5.91,0A5,5,0,0,0,190,41.16V28.74h4.9Z"/><path class="cls-1" d="M208.71,28.74V45.8h6.57v4.13H203.82V28.74Z"/><path class="cls-1" d="M234.25,32.87h-7.08V37h6.73V41.1h-6.73v4.7h7.08v4.13h-12V28.74h12Z"/><path class="cls-1" d="M71.54,25.05,60.08,18.43a1.24,1.24,0,0,0-1.21,0L48,24.7,37.15,18.43a1.24,1.24,0,0,0-1.21,0L24.48,25.05a1.21,1.21,0,0,0-.61,1.05V52.57a1.2,1.2,0,0,0,.61,1l11.46,6.62a1.19,1.19,0,0,0,1.21,0L48,54l10.86,6.27a1.15,1.15,0,0,0,.6.16,1.21,1.21,0,0,0,.61-.16l11.46-6.62a1.21,1.21,0,0,0,.6-1V26.1A1.24,1.24,0,0,0,71.54,25.05ZM59.47,20.88l9,5.22-9,5.22-9-5.22ZM58.26,45.25l-9,5.22V40l9-5.22Zm0,2.8v9l-7.83-4.52ZM36.54,20.88,47.4,27.15l9.65,5.57-9,5.22L27.5,26.1ZM26.29,28.2,46.8,40V50.47l-9.65-5.56a1.22,1.22,0,0,0-1.82,1V57.09l-9-5.22Zm19.3,24.37-7.83,4.52v-9Zm15.09,4.52V33.42l9-5.22V51.87Z"/><polygon class="cls-2" points="145.32 73.75 85.07 73.75 87.63 57.06 148.58 57.06 145.32 73.75"/><text class="cls-3" transform="translate(91.02 69.01)">b<tspan class="cls-4" x="7.39" y="0">e</tspan><tspan class="cls-5" x="14.36" y="0">t</tspan><tspan x="18.86" y="0">a app </tspan></text></svg>